<?xml version="1.0" encoding="UTF-8" standalone="no"?>
<!DOCTYPE svg PUBLIC "-//W3C//DTD SVG 20010904//EN"
              "http://www.w3.org/TR/2001/REC-SVG-20010904/DTD/svg10.dtd">

<svg xmlns="http://www.w3.org/2000/svg"
     width="26.6667in" height="15in"
     viewBox="0 0 1920 1080">
  <path id="Selection"
        fill="none" stroke="black" stroke-width="1"
        d="M 732.00,343.00
           C 727.38,349.45 720.94,355.05 715.00,360.28
             712.90,362.14 708.16,366.10 707.96,369.00
             707.75,371.89 715.79,381.18 717.85,384.00
             727.48,397.20 734.94,409.67 742.69,424.00
             759.28,454.69 771.55,499.20 774.09,534.00
             774.09,534.00 775.00,544.00 775.00,544.00
             775.27,567.17 775.29,585.91 771.73,609.00
             762.77,667.07 735.98,721.96 696.09,765.00
             696.09,765.00 687.99,773.96 687.99,773.96
             613.90,846.59 510.97,875.72 410.00,853.42
             386.65,848.27 363.42,840.44 342.00,829.73
             313.58,815.52 286.69,796.19 264.01,773.96
             264.01,773.96 255.92,765.00 255.92,765.00
             234.06,741.24 216.78,715.34 203.31,686.00
             189.66,656.29 180.30,621.63 177.91,589.00
             177.91,589.00 177.00,577.00 177.00,577.00
             177.00,577.00 177.00,544.00 177.00,544.00
             177.20,526.82 181.92,502.81 186.13,486.00
             208.02,398.44 270.57,324.56 353.00,287.86
             380.87,275.45 410.66,267.08 441.00,263.84
             441.00,263.84 460.00,262.00 460.00,262.00
             460.00,262.00 506.00,262.00 506.00,262.00
             514.50,262.16 513.99,265.70 514.00,273.00
             514.00,273.00 514.00,385.00 514.00,385.00
             514.00,385.00 514.00,420.00 514.00,420.00
             514.00,426.80 513.40,434.43 515.00,441.00
             521.31,439.21 536.69,439.99 544.00,440.00
             546.76,440.00 551.18,439.65 553.46,441.74
             555.83,444.31 554.84,449.03 553.46,452.00
             553.46,452.00 542.17,476.00 542.17,476.00
             542.17,476.00 502.25,556.00 502.25,556.00
             502.25,556.00 491.25,578.00 491.25,578.00
             488.70,583.08 487.35,587.17 483.00,591.00
             483.00,591.00 463.75,554.00 463.75,554.00
             463.75,554.00 425.75,477.00 425.75,477.00
             425.75,477.00 413.47,452.00 413.47,452.00
             412.08,448.33 411.24,443.46 415.23,441.02
             417.23,439.80 420.69,440.00 423.00,440.00
             430.30,439.99 445.69,439.21 452.00,441.00
             452.00,441.00 453.00,406.00 453.00,406.00
             453.00,406.00 453.00,338.00 453.00,338.00
             432.16,338.19 402.02,348.12 383.00,356.70
             327.76,381.61 283.98,430.00 263.69,487.00
             254.53,512.75 250.96,539.82 251.00,567.00
             251.02,577.55 253.30,594.52 255.40,605.00
             269.12,673.61 314.90,733.18 378.00,763.74
             403.20,775.95 438.92,785.96 467.00,786.00
             467.00,786.00 486.00,786.00 486.00,786.00
             501.22,785.98 523.26,781.63 538.00,777.42
             621.19,753.69 685.89,680.84 698.27,595.00
             698.27,595.00 701.00,568.00 701.00,568.00
             701.46,528.01 692.79,487.95 672.85,453.00
             672.85,453.00 658.28,430.00 658.28,430.00
             656.82,427.92 653.75,423.05 650.96,423.04
             648.54,423.04 644.82,427.12 643.00,428.72
             643.00,428.72 624.00,446.00 624.00,446.00
             624.00,446.00 616.88,417.00 616.88,417.00
             616.88,417.00 597.13,337.00 597.13,337.00
             597.13,337.00 588.00,299.00 588.00,299.00
             588.00,299.00 615.00,306.98 615.00,306.98
             615.00,306.98 665.00,322.28 665.00,322.28
             665.00,322.28 732.00,343.00 732.00,343.00 Z
           M 1343.00,441.00
           C 1343.00,441.00 1388.00,441.00 1388.00,441.00
             1388.00,441.00 1388.00,664.00 1388.00,664.00
             1388.00,664.00 1343.00,664.00 1343.00,664.00
             1343.00,664.00 1343.00,441.00 1343.00,441.00 Z
           M 892.00,450.00
           C 892.00,450.00 935.00,450.00 935.00,450.00
             935.00,450.00 942.61,451.02 942.61,451.02
             942.61,451.02 947.42,460.00 947.42,460.00
             947.42,460.00 954.80,479.00 954.80,479.00
             954.80,479.00 979.80,544.00 979.80,544.00
             979.80,544.00 992.00,574.00 992.00,574.00
             992.00,574.00 1002.95,544.00 1002.95,544.00
             1002.95,544.00 1028.32,478.00 1028.32,478.00
             1028.32,478.00 1035.60,459.00 1035.60,459.00
             1035.60,459.00 1039.70,450.99 1039.70,450.99
             1039.70,450.99 1047.00,450.00 1047.00,450.00
             1047.00,450.00 1091.00,450.00 1091.00,450.00
             1091.00,450.00 1093.83,484.00 1093.83,484.00
             1093.83,484.00 1098.83,540.00 1098.83,540.00
             1098.83,540.00 1106.83,629.00 1106.83,629.00
             1106.83,629.00 1110.00,664.00 1110.00,664.00
             1110.00,664.00 1070.00,664.00 1070.00,664.00
             1070.00,664.00 1062.02,662.40 1062.02,662.40
             1062.02,662.40 1060.83,654.00 1060.83,654.00
             1060.83,654.00 1059.01,633.00 1059.01,633.00
             1059.01,633.00 1054.04,572.00 1054.04,572.00
             1054.04,572.00 1052.28,549.00 1052.28,549.00
             1052.28,549.00 1050.00,537.00 1050.00,537.00
             1050.00,537.00 1035.31,579.00 1035.31,579.00
             1035.31,579.00 1016.33,633.00 1016.33,633.00
             1016.33,633.00 1009.67,652.00 1009.67,652.00
             1009.67,652.00 1005.92,661.43 1005.92,661.43
             1005.92,661.43 1000.00,663.00 1000.00,663.00
             1000.00,663.00 985.00,663.00 985.00,663.00
             985.00,663.00 977.51,661.98 977.51,661.98
             977.51,661.98 973.33,653.00 973.33,653.00
             973.33,653.00 966.00,632.00 966.00,632.00
             966.00,632.00 943.00,566.00 943.00,566.00
             943.00,566.00 933.73,540.11 933.73,540.11
             933.73,540.11 931.00,537.00 931.00,537.00
             931.00,537.00 927.09,588.00 927.09,588.00
             927.09,588.00 923.17,637.00 923.17,637.00
             923.17,637.00 921.00,664.00 921.00,664.00
             921.00,664.00 873.00,664.00 873.00,664.00
             873.00,664.00 877.83,610.00 877.83,610.00
             877.83,610.00 886.17,514.00 886.17,514.00
             886.17,514.00 890.17,470.00 890.17,470.00
             890.17,470.00 892.00,450.00 892.00,450.00 Z
           M 554.00,512.00
           C 554.00,512.00 613.00,512.00 613.00,512.00
             635.42,512.03 649.97,527.91 650.00,550.00
             650.00,550.00 650.00,624.00 650.00,624.00
             649.96,647.60 634.23,661.96 611.00,662.00
             611.00,662.00 351.00,662.00 351.00,662.00
             325.19,661.96 312.04,644.63 312.00,620.00
             312.00,620.00 312.00,554.00 312.00,554.00
             312.02,539.10 315.77,526.07 329.00,517.55
             339.61,510.71 349.10,512.00 361.00,512.00
             361.00,512.00 409.00,512.00 409.00,512.00
             409.00,512.00 409.00,535.00 409.00,535.00
             409.00,535.00 354.00,535.00 354.00,535.00
             340.90,535.16 336.02,541.50 336.00,554.00
             336.00,554.00 336.00,620.00 336.00,620.00
             336.02,632.48 340.14,637.98 353.00,638.00
             353.00,638.00 563.00,638.00 563.00,638.00
             563.00,638.00 602.00,638.00 602.00,638.00
             607.52,638.00 615.24,638.90 619.96,635.85
             626.48,631.64 626.99,624.99 627.00,618.00
             627.00,618.00 627.00,556.00 627.00,556.00
             626.98,542.35 622.55,535.07 608.00,535.00
             608.00,535.00 554.00,535.00 554.00,535.00
             554.00,535.00 554.00,512.00 554.00,512.00 Z
           M 1545.00,649.00
           C 1532.40,661.56 1520.03,667.97 1502.00,668.00
             1484.20,668.03 1467.90,662.82 1455.04,649.96
             1423.07,617.99 1429.61,555.60 1471.00,534.60
             1484.04,527.99 1491.86,527.84 1506.00,528.00
             1521.68,528.19 1533.15,534.38 1545.00,544.00
             1545.00,544.00 1545.00,532.00 1545.00,532.00
             1545.00,532.00 1590.00,532.00 1590.00,532.00
             1590.00,532.00 1590.00,664.00 1590.00,664.00
             1590.00,664.00 1545.00,664.00 1545.00,664.00
             1545.00,664.00 1545.00,649.00 1545.00,649.00 Z
           M 1654.00,620.00
           C 1654.00,620.00 1672.00,630.22 1672.00,630.22
             1676.84,632.53 1684.62,635.27 1690.00,634.81
             1700.07,633.96 1704.85,626.33 1699.69,620.10
             1695.27,614.78 1683.51,611.67 1677.00,608.69
             1663.72,602.61 1650.65,595.18 1646.76,580.00
             1645.75,576.06 1645.96,571.11 1646.00,567.00
             1646.21,549.60 1658.33,537.72 1674.00,532.09
             1695.09,524.52 1728.40,527.16 1748.00,538.00
             1748.00,538.00 1734.00,567.00 1734.00,567.00
             1723.85,565.16 1714.19,558.50 1702.00,559.10
             1697.61,559.32 1690.99,561.16 1689.71,566.02
             1688.81,569.38 1691.56,572.50 1694.04,574.35
             1697.71,577.09 1710.02,580.67 1715.00,582.33
             1729.85,587.30 1743.79,594.98 1748.56,611.00
             1750.21,616.55 1750.06,620.33 1750.00,626.00
             1749.53,666.27 1701.65,671.88 1671.00,666.72
             1666.56,665.97 1660.30,663.87 1656.00,662.31
             1648.05,659.41 1642.92,655.61 1636.00,651.00
             1636.00,651.00 1654.00,620.00 1654.00,620.00 Z
           M 1133.00,532.00
           C 1133.00,532.00 1178.00,532.00 1178.00,532.00
             1179.75,532.00 1183.08,531.86 1184.61,532.57
             1187.57,533.95 1192.99,545.64 1194.86,549.00
             1194.86,549.00 1223.00,599.00 1223.00,599.00
             1223.00,599.00 1246.14,549.00 1246.14,549.00
             1246.14,549.00 1254.49,533.02 1254.49,533.02
             1254.49,533.02 1262.00,532.00 1262.00,532.00
             1262.00,532.00 1306.00,532.00 1306.00,532.00
             1303.96,539.17 1299.58,545.39 1296.25,552.00
             1296.25,552.00 1273.31,596.00 1273.31,596.00
             1273.31,596.00 1236.78,666.00 1236.78,666.00
             1236.78,666.00 1226.00,687.00 1226.00,687.00
             1226.00,687.00 1209.75,718.00 1209.75,718.00
             1202.73,732.01 1204.19,731.98 1195.00,732.00
             1195.00,732.00 1150.00,732.00 1150.00,732.00
             1150.00,732.00 1162.74,707.00 1162.74,707.00
             1162.74,707.00 1182.26,669.00 1182.26,669.00
             1182.26,669.00 1191.25,652.00 1191.25,652.00
             1191.25,652.00 1194.62,644.42 1194.62,644.42
             1194.62,644.42 1190.58,635.00 1190.58,635.00
             1190.58,635.00 1178.77,614.00 1178.77,614.00
             1178.77,614.00 1145.70,555.00 1145.70,555.00
             1145.70,555.00 1133.00,532.00 1133.00,532.00 Z
           M 1512.00,566.29
           C 1504.22,567.57 1496.79,570.06 1491.32,576.09
             1476.40,592.57 1480.91,627.30 1513.00,629.49
             1550.15,632.02 1558.02,579.24 1526.00,568.11
             1521.84,566.66 1516.38,565.97 1512.00,566.29 Z" />
</svg>
