<?xml version="1.0" encoding="UTF-8" standalone="no"?>
<svg
   xmlns:dc="http://purl.org/dc/elements/1.1/"
   xmlns:cc="http://creativecommons.org/ns#"
   xmlns:rdf="http://www.w3.org/1999/02/22-rdf-syntax-ns#"
   xmlns:svg="http://www.w3.org/2000/svg"
   xmlns="http://www.w3.org/2000/svg"
   xmlns:sodipodi="http://sodipodi.sourceforge.net/DTD/sodipodi-0.dtd"
   xmlns:inkscape="http://www.inkscape.org/namespaces/inkscape"
   width="210mm"
   height="297mm"
   viewBox="0 0 210 297"
   version="1.1"
   id="svg8"
   sodipodi:docname="tekening.svg"
   inkscape:version="1.0.2 (e86c870879, 2021-01-15, custom)">
  <defs
     id="defs2" />
  <sodipodi:namedview
     id="base"
     pagecolor="#ffffff"
     bordercolor="#666666"
     borderopacity="1.0"
     inkscape:pageopacity="0.0"
     inkscape:pageshadow="2"
     inkscape:zoom="0.98994949"
     inkscape:cx="570.32435"
     inkscape:cy="231.26765"
     inkscape:document-units="mm"
     inkscape:current-layer="layer1"
     inkscape:document-rotation="0"
     showgrid="false"
     inkscape:window-width="1920"
     inkscape:window-height="1001"
     inkscape:window-x="-9"
     inkscape:window-y="-9"
     inkscape:window-maximized="1" />
  <metadata
     id="metadata5">
    <rdf:RDF>
      <cc:Work
         rdf:about="">
        <dc:format>image/svg+xml</dc:format>
        <dc:type
           rdf:resource="http://purl.org/dc/dcmitype/StillImage" />
        <dc:title></dc:title>
      </cc:Work>
    </rdf:RDF>
  </metadata>
  <g
     inkscape:label="Laag 1"
     inkscape:groupmode="layer"
     id="layer1">
    <path
       id="Selection"
       fill="none"
       stroke="#000000"
       stroke-width="0.366259"
       d="m 73.823758,22.660034 c -0.585958,0.848999 -1.402757,1.586119 -2.156138,2.274535 -0.266348,0.244826 -0.867534,0.766074 -0.892901,1.147797 -0.02663,0.380407 0.993097,1.603231 1.254371,1.974425 1.221393,1.73749 2.167557,3.378894 3.150507,5.265128 2.104139,4.03967 3.660371,9.898442 3.982526,14.479101 0,0 0.115417,1.316283 0.115417,1.316283 0.03422,3.049827 0.03675,5.516542 -0.414741,8.555837 -1.136418,7.643648 -4.534243,14.86872 -9.593578,20.534 0,0 -1.027338,1.179389 -1.027338,1.179389 -9.396978,9.560161 -22.451799,13.394487 -35.258029,10.459174 -2.961526,-0.677878 -5.907831,-1.708532 -8.624576,-3.118268 -3.604563,-1.870437 -7.01508,-4.414811 -9.891629,-7.340906 0,0 -1.026067,-1.179389 -1.026067,-1.179389 C 10.66903,75.079654 8.477378,71.670484 6.7689504,67.808513 5.0376927,63.897838 3.8505413,59.335603 3.5474153,55.040574 c 0,0 -0.1154167,-1.579537 -0.1154167,-1.579537 0,0 0,-4.343734 0,-4.343734 0.025367,-2.261371 0.6240089,-5.421767 1.1579756,-7.634436 C 7.3663275,29.957502 15.299668,20.23281 25.754433,15.402053 c 3.534808,-1.633506 7.313133,-2.735234 11.161213,-3.161709 0,0 2.40981,-0.242196 2.40981,-0.242196 0,0 5.834274,0 5.834274,0 1.078073,0.02106 1.013383,0.487024 1.014655,1.44791 0,0 0,14.742358 0,14.742358 0,0 0,4.606991 0,4.606991 0,0.895072 -0.0761,1.899394 0.126835,2.764191 0.800307,-0.235614 2.750987,-0.132946 3.678121,-0.131629 0.350059,0 0.910658,-0.04606 1.199835,0.229035 0.30059,0.338282 0.175026,0.95957 0,1.350506 0,0 -1.431933,3.159074 -1.431933,3.159074 0,0 -5.063136,10.530258 -5.063136,10.530258 0,0 -1.395154,2.895824 -1.395154,2.895824 -0.32342,0.66867 -0.494644,1.207029 -1.04636,1.711167 0,0 -2.441515,-4.870246 -2.441515,-4.870246 0,0 -4.819619,-10.135374 -4.819619,-10.135374 0,0 -1.557497,-3.290703 -1.557497,-3.290703 -0.176297,-0.483077 -0.282839,-1.124108 0.223224,-1.445278 0.253663,-0.160586 0.6925,-0.134263 0.985486,-0.134263 0.92587,-0.0015 2.877822,-0.103985 3.678129,0.131629 0,0 0.126828,-4.606986 0.126828,-4.606986 0,0 0,-8.95072 0,-8.95072 -2.643172,0.025 -6.465893,1.332078 -8.87824,2.461446 -7.006197,3.278861 -12.558904,9.648348 -15.132328,17.151159 -1.161777,3.389427 -1.614569,6.952601 -1.609495,10.530257 0.0022,1.388679 0.291714,3.622407 0.558062,5.001874 1.740132,9.03101 7.546502,16.872102 15.549606,20.894661 3.19616,1.607181 7.726602,2.924778 11.288049,2.930042 0,0 2.409802,0 2.409802,0 1.930385,-0.0026 4.72576,-0.575216 6.595272,-1.129368 10.551153,-3.123539 18.757179,-12.712654 20.327359,-24.011618 0,0 0.34625,-3.553962 0.34625,-3.553962 0.05832,-5.263816 -1.041287,-10.53684 -3.570315,-15.137248 0,0 -1.847946,-3.027449 -1.847946,-3.027449 -0.185173,-0.273784 -0.574547,-0.914814 -0.928407,-0.916131 -0.306935,0 -0.778748,0.537042 -1.009589,0.747649 0,0 -2.409802,2.274535 -2.409802,2.274535 0,0 -0.903047,-3.817219 -0.903047,-3.817219 0,0 -2.504933,-10.530257 -2.504933,-10.530257 0,0 -1.157975,-5.00187 -1.157975,-5.00187 0,0 3.424464,1.050391 3.424464,1.050391 0,0 6.341602,2.013912 6.341602,2.013912 0,0 8.49774,2.727338 8.49774,2.727338 z m 77.494362,12.899564 c 0,0 5.70744,0 5.70744,0 0,0 0,29.353091 0,29.353091 0,0 -5.70744,0 -5.70744,0 0,0 0,-29.353091 0,-29.353091 z m -57.201238,1.184653 c 0,0 5.453774,0 5.453774,0 0,0 0.965194,0.13426 0.965194,0.13426 0,0 0.61006,1.182024 0.61006,1.182024 0,0 0.93602,2.500937 0.93602,2.500937 0,0 3.17081,8.555831 3.17081,8.555831 0,0 1.54734,3.948847 1.54734,3.948847 0,0 1.38881,-3.948847 1.38881,-3.948847 0,0 3.21774,-8.68746 3.21774,-8.68746 0,0 0.92333,-2.500938 0.92333,-2.500938 0,0 0.52001,-1.054342 0.52001,-1.054342 0,0 0.92587,-0.130312 0.92587,-0.130312 0,0 5.58061,0 5.58061,0 0,0 0.35894,4.475358 0.35894,4.475358 0,0 0.63416,7.371182 0.63416,7.371182 0,0 1.01465,11.714911 1.01465,11.714911 0,0 0.40206,4.606987 0.40206,4.606987 0,0 -5.07328,0 -5.07328,0 0,0 -1.01212,-0.210604 -1.01212,-0.210604 0,0 -0.15093,-1.105675 -0.15093,-1.105675 0,0 -0.23083,-2.764195 -0.23083,-2.764195 0,0 -0.63036,-8.02932 -0.63036,-8.02932 0,0 -0.22322,-3.02745 -0.22322,-3.02745 0,0 -0.28918,-1.579537 -0.28918,-1.579537 0,0 -1.86317,5.528383 -1.86317,5.528383 0,0 -2.40726,7.107924 -2.40726,7.107924 0,0 -0.8447,2.500936 -0.8447,2.500936 0,0 -0.47563,1.241256 -0.47563,1.241256 0,0 -0.75084,0.206657 -0.75084,0.206657 0,0 -1.90248,0 -1.90248,0 0,0 -0.94997,-0.134264 -0.94997,-0.134264 0,0 -0.53016,-1.18202 -0.53016,-1.18202 0,0 -0.92968,-2.764191 -0.92968,-2.764191 0,0 -2.91713,-8.687464 -2.91713,-8.687464 0,0 -1.175734,-3.407853 -1.175734,-3.407853 0,0 -0.346257,-0.409364 -0.346257,-0.409364 0,0 -0.495909,6.713037 -0.495909,6.713037 0,0 -0.497181,6.449782 -0.497181,6.449782 0,0 -0.275229,3.553962 -0.275229,3.553962 0,0 -6.087938,0 -6.087938,0 0,0 0.612605,-7.107924 0.612605,-7.107924 0,0 1.057772,-12.636306 1.057772,-12.636306 0,0 0.507335,-5.791641 0.507335,-5.791641 0,0 0.232098,-2.632567 0.232098,-2.632567 z M 51.247668,44.9052 c 0,0 7.483084,0 7.483084,0 2.843573,0.0039 4.688983,2.094207 4.692784,5.001875 0,0 0,9.740486 0,9.740486 -0.0052,3.106427 -2.000142,4.996609 -4.946447,5.001873 0,0 -32.97632,0 -32.97632,0 -3.273534,-0.0053 -4.941374,-2.286381 -4.946447,-5.528386 0,0 0,-8.687461 0,-8.687461 0.0022,-1.961261 0.478152,-3.676375 2.156138,-4.797849 1.345693,-0.900337 2.549329,-0.730538 4.058628,-0.730538 0,0 6.087938,0 6.087938,0 0,0 0,3.027449 0,3.027449 0,0 -6.975765,0 -6.975765,0 -1.661494,0.02108 -2.280437,0.855586 -2.282974,2.500938 0,0 0,8.687461 0,8.687461 0.0022,1.642721 0.525085,2.366678 2.156146,2.369308 0,0 26.634718,0 26.634718,0 0,0 4.946447,0 4.946447,0 0.700118,0 1.679259,0.118465 2.277908,-0.283 0.826938,-0.554153 0.891628,-1.429483 0.892893,-2.349562 0,0 0,-8.160952 0,-8.160952 -0.0022,-1.796724 -0.5644,-2.754976 -2.409802,-2.764193 0,0 -6.848929,0 -6.848929,0 0,0 0,-3.027449 0,-3.027449 z M 176.93819,62.938268 c -1.59809,1.653251 -3.167,2.496986 -5.45378,2.500937 -2.25761,0.0039 -4.32497,-0.681835 -5.95603,-2.374577 -4.05482,-4.208152 -3.22534,-12.420437 2.02423,-15.184629 1.65389,-0.870062 2.64573,-0.889808 4.43912,-0.868745 1.98873,0.025 3.4435,0.839786 4.94646,2.106049 0,0 0,-1.579537 0,-1.579537 0,0 5.70744,0 5.70744,0 0,0 0,17.374923 0,17.374923 0,0 -5.70744,0 -5.70744,0 0,0 0,-1.974421 0,-1.974421 z m 13.82468,-3.81722 c 0,0 2.28299,1.345241 2.28299,1.345241 0.61386,0.304063 1.60061,0.664723 2.28297,0.604173 1.27719,-0.111883 1.88345,-1.116205 1.229,-1.93625 -0.5606,-0.700263 -2.05215,-1.109627 -2.87782,-1.501876 -1.68432,-0.8003 -3.34202,-1.778299 -3.8354,-3.776416 -0.1281,-0.518614 -0.10146,-1.170173 -0.0964,-1.711166 0.0266,-2.290329 1.56383,-3.854074 3.55129,-4.595141 2.67489,-0.996426 6.89966,-0.648929 9.38558,0.77792 0,0 -1.77566,3.817221 -1.77566,3.817221 -1.28734,-0.242196 -2.51254,-1.11884 -4.05862,-1.039861 -0.5568,0.02896 -1.39642,0.271153 -1.55877,0.910866 -0.11414,0.44227 0.23465,0.852951 0.54919,1.096463 0.46547,0.360661 2.02677,0.831889 2.6584,1.050391 1.88345,0.654194 3.65149,1.665098 4.25648,3.773781 0.20927,0.730538 0.19025,1.228093 0.18264,1.974424 -0.0596,5.300668 -6.13233,6.039102 -10.01973,5.359901 -0.56314,-0.09872 -1.3571,-0.375141 -1.90248,-0.58048 -1.00832,-0.381724 -1.65897,-0.881909 -2.53664,-1.488717 0,0 2.28297,-4.080474 2.28297,-4.080474 z M 124.6834,47.537766 c 0,0 5.70744,0 5.70744,0 0.22195,0 0.6443,-0.01843 0.83835,0.07503 0.37543,0.181646 1.06286,1.720382 1.30004,2.162652 0,0 3.56905,6.581412 3.56905,6.581412 0,0 2.93489,-6.581412 2.93489,-6.581412 0,0 1.05905,-2.103419 1.05905,-2.103419 0,0 0.95251,-0.13426 0.95251,-0.13426 0,0 5.5806,0 5.5806,0 -0.25873,0.943772 -0.81425,1.7625 -1.2366,2.632563 0,0 -2.90954,5.791645 -2.90954,5.791645 0,0 -4.63316,9.213973 -4.63316,9.213973 0,0 -1.36725,2.764191 -1.36725,2.764191 0,0 -2.06103,4.080474 -2.06103,4.080474 -0.89035,1.844112 -0.70518,1.840165 -1.87077,1.842796 0,0 -5.70744,0 -5.70744,0 0,0 1.61584,-3.290704 1.61584,-3.290704 0,0 2.47576,-5.001874 2.47576,-5.001874 0,0 1.14022,-2.237679 1.14022,-2.237679 0,0 0.42743,-0.997739 0.42743,-0.997739 0,0 -0.51241,-1.23994 -0.51241,-1.23994 0,0 -1.49788,-2.76419 -1.49788,-2.76419 0,0 -4.19433,-7.766065 -4.19433,-7.766065 0,0 -1.61077,-3.027451 -1.61077,-3.027451 z m 48.06933,4.513532 c -0.98676,0.168483 -1.92912,0.496238 -2.62288,1.289956 -1.89234,2.169234 -1.32033,6.740681 2.74971,7.028946 4.71181,0.333019 5.70997,-6.614317 1.64882,-8.07934 -0.52762,-0.190858 -1.22012,-0.281683 -1.77565,-0.239562 z"
       style="stroke:#726a95;stroke-opacity:1;stroke-width:0;stroke-miterlimit:4;stroke-dasharray:none" />
    <path
       style="stroke:#726a95;stroke-width:0;stroke-opacity:0;stroke-miterlimit:4;stroke-dasharray:none"
       d="M 36.736507,90.32347 C 28.454811,89.129725 21.29798,85.650419 15.58802,80.042109 10.925156,75.462242 7.7203885,70.346761 5.6779187,64.223493 4.1395181,59.611427 3.7422214,56.999936 3.7277004,51.404607 3.7134918,45.932749 4.1805296,42.959382 5.8046725,38.181471 9.5759082,27.087263 18.196444,18.252118 29.061085,14.346096 33.324376,12.81337 35.913801,12.391157 41.220923,12.363399 l 4.620312,-0.02417 0.135889,11.677008 0.135896,11.677008 2.380158,-0.05951 c 2.009619,-0.05024 2.407377,0.01409 2.554952,0.413217 0.112345,0.303836 -1.369132,3.694601 -4.14675,9.490942 -2.376847,4.960018 -4.410227,9.076227 -4.518621,9.147135 -0.282877,0.185046 -8.954236,-17.911921 -8.850001,-18.4698 0.07231,-0.387183 0.495433,-0.471464 2.528611,-0.5037 l 2.441731,-0.03872 0.07275,-6.975406 0.07275,-6.975407 -1.51435,0.196361 c -6.910606,0.896073 -14.173986,5.387463 -18.652645,11.534057 -6.659144,9.139135 -7.670756,21.098015 -2.66386,31.49108 5.210965,10.816649 17.10229,17.512716 28.527671,16.06407 6.644683,-0.842492 12.32029,-3.614686 16.948048,-8.278116 7.560935,-7.619211 10.446582,-18.468419 7.751962,-29.145199 -1.09458,-4.337033 -4.385648,-10.513586 -5.601968,-10.513586 -0.207118,0 -1.012535,0.624212 -1.789818,1.387136 l -1.413253,1.387138 -2.154301,-9.138249 c -1.184868,-5.026036 -2.089105,-9.205914 -2.009418,-9.288617 0.07969,-0.0827 4.018367,1.082561 8.752609,2.589477 l 8.607718,2.739845 -1.363821,1.433204 c -0.750108,0.788261 -1.363829,1.671532 -1.363829,1.962824 0,0.291291 0.480213,1.189705 1.06713,1.996474 4.992041,6.861943 7.738958,16.407542 7.255644,25.213495 -0.559758,10.198708 -4.212162,18.655314 -11.160157,25.839725 -5.393317,5.57684 -11.377912,8.936411 -18.851163,10.582483 -3.013762,0.663816 -9.479365,0.95217 -12.284314,0.547855 z"
       id="path854" />
    <path
       style="stroke:#726a95;stroke-width:0;stroke-opacity:1;stroke-miterlimit:4;stroke-dasharray:none"
       d="M 34.290462,89.748115 C 26.622063,88.026764 20.401063,84.628058 15.245921,79.343575 9.8669457,73.829631 6.4287036,67.563817 4.6356053,60.00745 3.8600558,56.739177 3.649836,49.145441 4.2269789,45.247027 5.388436,37.401826 9.1309942,29.831136 14.713539,24.034144 c 4.243785,-4.406812 8.964539,-7.518838 14.456171,-9.529834 3.828405,-1.401935 5.936271,-1.760257 11.395067,-1.937078 l 5.051293,-0.163621 0.180531,8.546086 c 0.09929,4.700347 0.180523,9.985073 0.180523,11.743837 v 3.197748 h 2.446045 c 1.481678,0 2.446045,0.113442 2.446045,0.287736 0,0.72764 -7.715971,17.098428 -8.41719,17.858547 -0.390393,0.423187 -8.899664,-17.309361 -8.571022,-17.861227 0.09337,-0.15678 1.202111,-0.285056 2.463869,-0.285056 h 2.294118 l 0.0037,-6.557905 c 0.0022,-3.606848 0.07848,-6.847528 0.169848,-7.201511 0.15901,-0.61597 0.11509,-0.636003 -1.02289,-0.466553 -9.582627,1.426889 -17.72246,7.381077 -22.069462,16.143546 -3.679088,7.416114 -4.142339,16.266766 -1.268765,24.24034 3.953603,10.970418 14.072987,18.601337 25.417907,19.167367 8.476717,0.42293 16.276244,-2.772372 22.079103,-9.045343 3.71728,-4.018425 5.986335,-8.159512 7.328658,-13.374993 0.623213,-2.421449 0.704588,-3.275126 0.704588,-7.391623 0,-4.146415 -0.07888,-4.960898 -0.723253,-7.46798 -0.768296,-2.989225 -2.83524,-7.6802 -4.259571,-9.667192 -1.096045,-1.529015 -1.725827,-1.535701 -3.367764,-0.03576 -0.700199,0.63965 -1.307909,1.115626 -1.350461,1.057727 -0.09187,-0.124998 -3.63542,-15.49609 -3.87379,-16.803594 l -0.164611,-0.902935 1.050504,0.290686 c 1.886801,0.522095 15.452296,4.805954 15.556435,4.912578 0.05579,0.05712 -0.402839,0.698413 -1.019185,1.425093 -0.616354,0.72668 -1.120632,1.604653 -1.120632,1.951049 0,0.346397 0.656287,1.629959 1.458409,2.852361 4.247869,6.473527 6.348602,13.14745 6.603076,20.977664 0.223618,6.880539 -0.794921,12.219146 -3.424152,17.947551 -4.409192,9.606491 -12.502368,17.132409 -21.918568,20.382278 -4.042619,1.39525 -6.357663,1.770759 -11.663646,1.891879 -4.188945,0.09562 -5.263194,0.02837 -7.474024,-0.467904 z"
       id="path856" />
    <path
       style="font-variation-settings:normal;opacity:1;vector-effect:none;fill:#726a95;fill-opacity:1;stroke:#726a95;stroke-width:0;stroke-linecap:butt;stroke-linejoin:miter;stroke-miterlimit:4;stroke-dasharray:none;stroke-dashoffset:0;stroke-opacity:1;stop-color:#000000;stop-opacity:1"
       d="M 35.785269,89.754069 C 33.473677,89.380235 29.748043,88.235904 27.002756,87.056518 16.516055,82.551382 8.0958888,72.503624 5.2036205,61.04367 4.0228145,56.365012 3.8383635,48.529661 4.7958347,43.721303 7.4563324,30.360493 17.117739,19.099774 29.77321,14.609278 32.991055,13.467501 35.3962,13.081636 40.612141,12.870353 l 4.732055,-0.191681 0.180575,8.126438 c 0.09931,4.469541 0.180575,9.755842 0.180575,11.747336 v 3.620897 h 2.439313 2.43932 l -0.279946,0.775666 C 49.765581,38.440942 42.6197,53.37903 42.444466,53.37903 c -0.531341,0 -8.154004,-15.832651 -8.154004,-16.936279 0,-0.15004 1.023567,-0.269408 2.310156,-0.269408 h 2.310156 l 0.0485,-6.769451 c 0.02671,-3.723198 0.05728,-7.055037 0.06792,-7.404087 0.0177,-0.578305 -0.08914,-0.627608 -1.203607,-0.555455 -1.934373,0.125237 -6.115269,1.37859 -8.525941,2.555918 -6.359597,3.105906 -10.899486,7.683749 -13.890358,14.006468 -1.742677,3.684027 -2.47392,6.2784 -2.909111,10.321198 -0.584403,5.428908 0.389717,11.135481 2.770908,16.232542 3.656763,7.827469 9.934769,13.298553 18.071581,15.748809 8.340338,2.511549 17.337289,1.007675 24.434779,-4.084353 2.381102,-1.708303 6.081816,-5.598794 7.748391,-8.145746 1.69285,-2.587091 3.220136,-6.135136 3.981157,-9.248607 0.887292,-3.630092 0.952458,-10.814488 0.130027,-14.336454 -1.227017,-5.254583 -4.567577,-11.705507 -6.061603,-11.705507 -0.227166,0 -1.029474,0.440077 -1.782915,0.977948 l -1.369884,0.97795 -1.542417,-6.689674 c -0.848326,-3.67932 -1.708242,-7.38237 -1.910926,-8.228998 -0.202684,-0.84663 -0.310579,-1.599448 -0.239775,-1.67293 0.133137,-0.138173 5.000626,1.321327 11.737806,3.519538 l 3.871112,1.263068 -0.949445,1.432443 c -0.52219,0.787844 -0.948075,1.640324 -0.946394,1.894399 0.0015,0.254076 0.743658,1.667764 1.648863,3.14153 4.601246,7.491351 6.325072,13.561516 6.327928,22.282776 0.0022,6.721864 -0.972624,11.151711 -3.687546,16.757056 -5.261736,10.863623 -15.361487,18.919874 -26.19051,20.891335 -2.78752,0.507478 -10.616616,0.764687 -12.754098,0.41901 z"
       id="path858" />
    <path
       style="font-variation-settings:normal;opacity:1;vector-effect:none;fill:#726a95;fill-opacity:1;stroke:#726a95;stroke-width:0;stroke-linecap:butt;stroke-linejoin:miter;stroke-miterlimit:4;stroke-dasharray:none;stroke-dashoffset:0;stroke-opacity:1;stop-color:#000000;stop-opacity:1"
       d="M 35.228004,89.913402 C 23.22763,87.672176 12.566074,79.186101 7.26169,67.653568 4.6628322,62.003251 3.9756882,58.398815 4.0027142,50.558427 4.0245106,44.234185 4.7306688,40.931294 7.2330869,35.448988 9.3506244,30.809906 11.436441,27.737575 14.992696,24.019384 c 6.051189,-6.326728 13.279576,-10.17427 20.928462,-11.139856 1.025442,-0.12945 9.545149,-0.6142 9.697806,-0.551781 0.02723,0.01114 0.137741,5.317486 0.245563,11.79189 l 0.196048,11.771645 h 2.404319 c 1.808193,0 2.40432,0.09216 2.40432,0.371684 0,0.580351 -7.742655,16.64831 -8.219364,17.057244 -0.366677,0.314545 -0.554521,0.141294 -1.376155,-1.269273 -1.177369,-2.021299 -5.980451,-11.978493 -6.729726,-13.951294 -0.785146,-2.06726 -0.662967,-2.208361 1.912227,-2.208361 h 2.182793 v -7.090973 -7.090971 l -1.458424,0.156215 c -1.835441,0.196598 -6.605271,1.841083 -9.057684,3.122803 -7.735818,4.04301 -13.666153,12.474445 -15.009108,21.339162 -1.493632,9.859266 1.295197,19.075295 7.85933,25.972141 4.226854,4.441101 9.166383,7.155395 15.133168,8.315751 3.369855,0.655331 9.704999,0.445115 12.724572,-0.422235 4.261141,-1.223982 8.211397,-3.489931 11.395967,-6.536968 3.270588,-3.129339 5.249149,-5.773358 6.836454,-9.135789 2.33039,-4.936531 2.654628,-6.557167 2.652233,-13.256841 -0.0022,-5.918156 -0.06137,-6.313164 -1.585601,-10.575905 -0.802747,-2.244934 -2.83786,-6.082931 -3.657813,-6.898197 l -0.796661,-0.792114 -1.307173,0.780957 c -0.718946,0.429525 -1.498892,0.952446 -1.733207,1.162046 -0.380834,0.340655 -0.629729,-0.508952 -2.345737,-8.007354 -1.323635,-5.783835 -1.835709,-8.497074 -1.649183,-8.738295 0.342345,-0.442744 0.234977,-0.469748 8.945198,2.24982 l 7.242075,2.261173 -1.049611,1.685362 -1.049611,1.685362 0.679214,1.391056 c 0.373574,0.765081 1.086858,2.053201 1.585081,2.862487 2.930594,4.760291 4.911223,10.51375 5.457219,15.852469 0.272023,2.659932 0.203502,9.385805 -0.1193,11.709553 -1.255345,9.036856 -6.959816,18.611605 -14.688032,24.653327 -5.528462,4.322021 -11.314234,6.80572 -17.121661,7.349953 -3.840745,0.359932 -9.414616,0.368875 -11.29269,0.01811 z"
       id="path860" />
    <path
       style="font-variation-settings:normal;opacity:1;vector-effect:none;fill:#a0c1b8;fill-opacity:1;stroke:#726a95;stroke-width:0;stroke-linecap:butt;stroke-linejoin:miter;stroke-miterlimit:4;stroke-dasharray:none;stroke-dashoffset:0;stroke-opacity:1;stop-color:#000000;stop-opacity:1"
       d="m 23.206666,63.910298 c -2.154791,-1.102215 -2.575796,-2.813241 -2.458728,-9.992585 0.09967,-6.112726 0.279284,-6.799261 2.114584,-8.082842 0.850825,-0.595053 1.192262,-0.635594 5.35302,-0.635594 h 4.444223 v 1.269272 1.269272 h -3.953202 c -3.834854,0 -3.973183,0.02073 -4.620312,0.69233 -0.663414,0.688499 -0.667103,0.723271 -0.667103,6.283601 0,4.60403 0.0747,5.701956 0.423088,6.21815 l 0.42308,0.626882 h 17.65048 c 17.288094,0 17.661631,-0.01158 18.194043,-0.564121 0.507409,-0.526599 0.543563,-0.940202 0.543563,-6.218151 0,-5.626964 -0.003,-5.657345 -0.667104,-6.346361 -0.647136,-0.671603 -0.785458,-0.69233 -4.620312,-0.69233 H 51.412785 V 46.449976 45.16213 l 4.552364,0.08909 c 4.198734,0.08217 4.61837,0.137955 5.402147,0.71817 1.59833,1.183213 1.732151,1.868246 1.732151,8.866972 0,7.169893 -0.135792,7.754903 -2.066662,8.903751 l -1.058843,0.629995 -17.937671,-0.0018 c -15.972865,-0.0016 -18.035368,-0.05176 -18.829605,-0.458033 z"
       id="path862" />
    <path
       style="font-variation-settings:normal;opacity:1;vector-effect:none;fill:#a0c1b8;fill-opacity:1;stroke:#726a95;stroke-width:0;stroke-linecap:butt;stroke-linejoin:miter;stroke-miterlimit:4;stroke-dasharray:none;stroke-dashoffset:0;stroke-opacity:1;stop-color:#000000;stop-opacity:1"
       d="m 92.02033,63.321661 c 0.0896,-0.736883 0.591255,-6.543802 1.114784,-12.904266 0.523538,-6.360463 1.017609,-11.976991 1.097943,-12.481175 l 0.146051,-0.916696 h 2.970318 2.970314 l 0.41332,0.829496 c 0.22733,0.456222 1.2749,3.153426 2.32793,5.993784 2.87017,7.741672 3.61297,9.558924 3.81172,9.32534 0.0993,-0.116712 1.41181,-3.575775 2.91664,-7.686807 1.50484,-4.11103 2.81897,-7.696724 2.9203,-7.968207 0.16047,-0.429963 0.58279,-0.493606 3.27547,-0.493606 2.98796,0 3.09537,0.0212 3.2147,0.634636 0.0679,0.349049 0.56426,5.965579 1.10303,12.481175 0.53876,6.515596 1.05165,12.449443 1.13975,13.186326 l 0.16019,1.339788 h -2.86918 -2.86918 l -0.16183,-1.480818 c -0.089,-0.814449 -0.39514,-4.493309 -0.68029,-8.175242 -0.28514,-3.681934 -0.60554,-6.84066 -0.71197,-7.019392 -0.10644,-0.178732 -1.4514,3.391797 -2.98879,7.93451 -1.53739,4.542713 -2.95694,8.365864 -3.15454,8.495891 -0.57632,0.379226 -2.59625,0.280712 -3.00809,-0.146705 -0.20761,-0.215465 -1.51432,-3.801159 -2.90378,-7.968208 -1.38947,-4.167049 -2.688843,-7.75492 -2.887502,-7.973047 -0.498595,-0.547446 -0.546904,-0.221258 -1.061328,7.166046 -0.23767,3.412931 -0.504337,6.871698 -0.592594,7.686147 l -0.160475,1.480818 h -2.847909 -2.84791 z"
       id="path864" />
    <path
       style="font-variation-settings:normal;opacity:1;vector-effect:none;fill:#a0c1b8;fill-opacity:1;stroke:#726a95;stroke-width:0;stroke-linecap:butt;stroke-linejoin:miter;stroke-miterlimit:4;stroke-dasharray:none;stroke-dashoffset:0;stroke-opacity:1;stop-color:#000000;stop-opacity:1"
       d="m 129.98542,68.017515 2.76478,-5.669868 -0.47212,-1.029068 c -0.25966,-0.565987 -1.94466,-3.758002 -3.74446,-7.093368 -1.79978,-3.335364 -3.32351,-6.159494 -3.38605,-6.275845 -0.0626,-0.116349 1.27778,-0.211545 2.97848,-0.211545 h 3.09219 l 2.07312,3.878331 c 3.10383,5.806591 2.53737,5.741624 4.91873,0.564122 l 2.04327,-4.442453 h 3.00582 c 1.6532,0 3.00582,0.04875 3.00582,0.108329 0,0.162258 -12.21762,24.471244 -12.66876,25.206597 -0.36519,0.595263 -0.57504,0.634636 -3.38247,0.634636 h -2.99312 z"
       id="path866" />
    <path
       style="font-variation-settings:normal;opacity:1;vector-effect:none;fill:#a0c1b8;fill-opacity:1;stroke:#726a95;stroke-width:0;stroke-linecap:butt;stroke-linejoin:miter;stroke-miterlimit:4;stroke-dasharray:none;stroke-dashoffset:0;stroke-opacity:1;stop-color:#000000;stop-opacity:1"
       d="M 151.42888,50.276365 V 35.891282 h 2.71783 2.71783 v 14.385083 14.385084 h -2.71783 -2.71783 z"
       id="path868" />
    <path
       style="font-variation-settings:normal;opacity:1;vector-effect:none;fill:#a0c1b8;fill-opacity:1;stroke:#726a95;stroke-width:0;stroke-linecap:butt;stroke-linejoin:miter;stroke-miterlimit:4;stroke-dasharray:none;stroke-dashoffset:0;stroke-opacity:1;stop-color:#000000;stop-opacity:1"
       d="m 168.6069,64.691282 c -2.05839,-0.737863 -3.30904,-1.904475 -4.39705,-4.101578 -0.83371,-1.683572 -0.94444,-2.158733 -0.94733,-4.06494 -0.004,-3.10451 0.65235,-4.867013 2.54643,-6.830636 1.68986,-1.751925 3.35629,-2.520428 5.4653,-2.520428 1.66691,0 3.60253,0.623119 4.7451,1.527555 1.16096,0.918992 1.2289,0.912509 1.2289,-0.117252 v -0.846182 h 2.58195 2.58192 v 8.461814 8.461814 h -2.58192 -2.58195 v -0.987212 c 0,-0.542967 -0.0601,-0.987212 -0.13353,-0.987212 -0.0734,0 -0.68784,0.439104 -1.36531,0.975786 -2.06992,1.639753 -4.47225,1.985671 -7.14251,1.028471 z m 7.29187,-5.332404 c 1.72702,-1.792324 1.78649,-4.339276 0.14475,-6.198476 -0.82502,-0.934285 -1.0447,-1.027787 -2.63346,-1.12081 -1.38237,-0.08094 -1.90954,0.01331 -2.60346,0.46547 -1.17334,0.764555 -1.81258,2.120607 -1.8212,3.863382 -0.0128,2.593922 1.53366,4.059223 4.28603,4.061044 1.48469,9.61e-4 1.66598,-0.07289 2.62734,-1.07061 z"
       id="path870" />
    <path
       style="font-variation-settings:normal;opacity:1;vector-effect:none;fill:#a0c1b8;fill-opacity:1;stroke:none;stroke-width:8.16326;stroke-linecap:butt;stroke-linejoin:miter;stroke-miterlimit:4;stroke-dasharray:none;stroke-dashoffset:0;stroke-opacity:1;stop-color:#000000;stop-opacity:1"
       d=""
       id="path872"
       transform="scale(0.26458333)" />
    <path
       style="font-variation-settings:normal;opacity:1;vector-effect:none;fill:#a0c1b8;fill-opacity:1;stroke:#726a95;stroke-width:0;stroke-linecap:butt;stroke-linejoin:miter;stroke-miterlimit:4;stroke-dasharray:none;stroke-dashoffset:0;stroke-opacity:1;stop-color:#000000;stop-opacity:1"
       d="m 192.03478,64.826328 c -0.61204,-0.198826 -1.60706,-0.649808 -2.21119,-1.002183 l -1.0984,-0.64068 0.97243,-1.729037 c 0.53483,-0.950971 1.01009,-1.781942 1.05614,-1.846603 0.0461,-0.06466 0.83469,0.284389 1.75254,0.775666 1.93483,1.035597 3.25419,1.143115 4.03853,0.329111 1.09869,-1.140226 0.66624,-1.662521 -2.77905,-3.356433 -2.96817,-1.45934 -3.74374,-2.463476 -3.74374,-4.847084 0,-2.66035 1.59481,-4.430588 4.56913,-5.071759 2.21848,-0.478233 6.04494,-0.03809 7.37911,0.848787 0.33726,0.224193 0.28121,0.516622 -0.37011,1.930857 l -0.76755,1.66665 -1.7736,-0.561835 c -2.24798,-0.712107 -3.69189,-0.461877 -3.81802,0.661659 -0.1082,0.963963 0.51629,1.475609 2.71185,2.221787 2.39098,0.812597 3.83164,1.921153 4.39473,3.381664 1.20857,3.13476 -0.33777,6.175262 -3.66161,7.199665 -1.69859,0.523501 -5.09958,0.543836 -6.65119,0.03977 z"
       id="path874" />
  </g>
</svg>
